{"title":"Blind Beast aka Moju - Yasuzô Masumura - 1969","uid":8803924,"size":2174967411,"categoryP":"video","categoryS":"movies","magnet":"?xt=urn:btih:cfb27f516ee0b2d4f7c8f83f05d4b13c27c12e7e&amp;dn=Blind+Beast+aka+Moju+-+Yasuz%26ocirc%3B+Masumura+-+1969&amp;tr=udp%3A%2F%2Ftracker.openbittorrent.com%3A80&amp;tr=udp%3A%2F%2Fopen.demonii.com%3A1337&amp;tr=udp%3A%2F%2Ftracker.coppersurfer.tk%3A6969&amp;tr=udp%3A%2F%2Fexodus.desync.com%3A6969","seeders":2,"leechers":2,"uploader":"cavallone","files":1,"time":1376278159,"description":"This sick and depraved scenario begins when a blind sculptor and his mother kidnap a young woman and use her as a model. In the darkness of an abandoned warehouse, she suffers at the hands of the artist. Giving in to find an avenue of escape, she becomes caught up in a series of sadomasochistic games. After she eventually loses her sight and her mind, the sexual games become even rougher. Whips are replaced with knives, which give way to meat cleavers, as the demented girl begs to have her arms and legs cut off. The girl ends up cut down to size after the mother dies over a battle with her son. He contemplates suicide when he realizes the girl can no longer give him a hand in this macabre tale that gives new meaning to the expression &quot;tortured artist.&quot; ~ Dan Pavlides, Rovi\n\n\nRip specs:\n\n\nFormat                                   : Matroska\nFormat version                           : Version 2\nFile size                                : 2.03 GiB\nDuration                                 : 1h 24mn\nOverall bit rate                         : 3 448 Kbps\nEncoded date                             : UTC 2011-07-10 21:02:00\nWriting application                      : mkvmerge v4.8.0 ('I Got The...') built on May 24 2011 03:12:58\nWriting library                          : libebml v1.2.0 + libmatroska v1.1.0\n\nVideo\nID                                       : 3\nFormat                                   : AVC\nFormat/Info                              : Advanced Video Codec\nFormat profile                           : &lt;a class=&quot;__cf_email__&quot; href=&quot;/cdn-cgi/l/email-protection&quot; data-cfemail=&quot;0941606e6149453a2739&quot;&gt;[email&amp;#160;protected]&lt;/a&gt;&lt;script cf-hash='f9e31' type=&quot;text/javascript&quot;&gt;\n/* &lt;![CDATA[ */!function(){try{var t=&quot;currentScript&quot;in document?document.currentScript:function(){for(var t=document.getElementsByTagName(&quot;script&quot;),e=t.length;e--;)if(t[e].getAttribute(&quot;cf-hash&quot;))return t[e]}();if(t&amp;&amp;t.previousSibling){var e,r,n,i,c=t.previousSibling,a=c.getAttribute(&quot;data-cfemail&quot;);if(a){for(e=&quot;&quot;,r=parseInt(a.substr(0,2),16),n=2;a.length-n;n+=2)i=parseInt(a.substr(n,2),16)^r,e+=String.fromCharCode(i);e=document.createTextNode(e),c.parentNode.replaceChild(e,c)}}}catch(u){}}();/* ]]&gt; */&lt;/script&gt;\nFormat settings, CABAC                   : Yes\nFormat settings, ReFrames                : 6 frames\nMuxing mode                              : Header stripping\nCodec ID                                 : V_MPEG4/ISO/AVC\nDuration                                 : 1h 24mn\nBit rate                                 : 3 187 Kbps\nWidth                                    : 712 pixels\nHeight                                   : 364 pixels\nDisplay aspect ratio                     : 2.35:1\nOriginal display aspect ratio            : 2.35:1\nFrame rate mode                          : Constant\nFrame rate                               : 23.976 fps\nColor space                              : YUV\nChroma subsampling                       : 4:2:0\nBit depth                                : 8 bits\nScan type                                : Progressive\nBits/(Pixel*Frame)                       : 0.513\nStream size                              : 1.87 GiB (92%)\nWriting library                          : x264 core 114 r1900 60ef1f8\nEncoding settings                        : cabac=1 // deblock=1:-2:-2 / analyse=0x3:0x133 / me=umh / subme=10 / psy=1 / psy_rd=1.00:0.00 // me_range=24 / chroma_me=1 / trellis=2 / 8x8dct=1 / cqm=0 / deadzone=21,11 / fast_pskip=0 / chroma_qp_offset=-2 / threads=12 / sliced_threads=0 / nr=0 / decimate=1 / interlaced=0 / constrained_intra=0 / bframes=5 / b_pyramid=2 / b_adapt=2 / b_bias=0 / direct=3 / weightb=1 / open_gop=0 / weightp=2 / keyint=250 / keyint_min=23 / scenecut=40 / intra_refresh=0 / rc_lookahead=60 / rc=crf / mbtree=1 / crf=14.0 / qcomp=0.60 / qpmin=0 / qpmax=69 / qpstep=4 / ip_ratio=1.40 / aq=1:1.20\nLanguage                                 : Japanese\nDefault                                  : Yes\nForced                                   : No\n\nAudio\nID                                       : 2\nFormat                                   : AC-3\nFormat/Info                              : Audio Coding 3\nMode extension                           : CM (complete main)\nFormat settings, Endianness              : Big\nMuxing mode                              : Header stripping\nCodec ID                                 : A_AC3\nDuration                                 : 1h 24mn\nBit rate mode                            : Constant\nBit rate                                 : 192 Kbps\nChannel(s)                               : 2 channels\nChannel positions                        : Front: L R\nSampling rate                            : 48.0 KHz\nBit depth                                : 16 bits\nCompression mode                         : Lossy\nDelay relative to video                  : 500ms\nStream size                              : 116 MiB (6%)\nLanguage                                 : Japanese\nDefault                                  : Yes\nForced                                   : No\n\nText\nID                                       : 1\nFormat                                   : UTF-8\nCodec ID                                 : S_TEXT/UTF8\nCodec ID/Info                            : UTF-8 Plain Text\nLanguage                                 : English\nDefault                                  : Yes\nForced                                   : Yes\n\n\nNot my rip.","torrent":{"xt":"urn:btih:cfb27f516ee0b2d4f7c8f83f05d4b13c27c12e7e","amp;dn":"Blind+Beast+aka+Moju+-+Yasuz%26ocirc%3B+Masumura+-+1969","amp;tr":["udp%3A%2F%2Ftracker.openbittorrent.com%3A80","udp%3A%2F%2Fopen.demonii.com%3A1337","udp%3A%2F%2Ftracker.coppersurfer.tk%3A6969","udp%3A%2F%2Fexodus.desync.com%3A6969"],"infoHash":"cfb27f516ee0b2d4f7c8f83f05d4b13c27c12e7e","infoHashBuffer":{"type":"Buffer","data":[207,178,127,81,110,224,178,212,247,200,248,63,5,212,177,60,39,193,46,126]},"announce":[],"urlList":[]}}